<?xml version="1.0" standalone="no"?>
<!DOCTYPE svg PUBLIC "-//W3C//DTD SVG 20010904//EN"
 "http://www.w3.org/TR/2001/REC-SVG-20010904/DTD/svg10.dtd">
<svg version="1.0" xmlns="http://www.w3.org/2000/svg"
 width="500.000000pt" height="500.000000pt" viewBox="0 0 500.000000 500.000000"
 preserveAspectRatio="xMidYMid meet">

<g transform="translate(0.000000,500.000000) scale(0.100000,-0.100000)"
fill="#000000" stroke="none">
<path d="M4025 4551 c-99 -36 -351 -156 -440 -209 -16 -9 -52 -31 -80 -47 -27
-16 -83 -51 -123 -77 l-72 -48 -38 19 c-109 55 -328 122 -502 152 -95 17 -428
18 -530 1 -163 -27 -360 -85 -488 -143 l-63 -29 -72 49 c-225 151 -616 341
-704 341 -28 0 -35 -6 -52 -38 -43 -84 -55 -158 -56 -337 0 -97 6 -206 14
-255 15 -95 71 -329 96 -403 23 -69 23 -75 -13 -150 -39 -80 -92 -211 -92
-226 0 -6 -12 -14 -27 -17 -66 -16 -133 -66 -191 -142 l-17 -24 -64 22 c-80
28 -111 19 -111 -34 0 -41 8 -47 88 -76 l62 -23 0 -244 0 -244 -37 -15 c-89
-34 -108 -48 -111 -81 -2 -25 2 -35 21 -48 23 -15 29 -14 83 4 32 12 58 20 59
18 1 -1 11 -18 23 -37 30 -51 80 -95 138 -124 42 -21 66 -26 128 -26 102 0
158 28 194 95 14 25 17 83 23 340 6 287 11 341 41 465 66 278 230 551 443 741
120 106 325 223 492 278 158 53 312 74 498 68 242 -9 404 -49 610 -154 133
-67 237 -144 355 -262 214 -215 341 -461 401 -776 21 -110 18 -439 -5 -545
-67 -308 -201 -550 -423 -760 -160 -152 -342 -260 -553 -326 l-80 -25 -38 29
c-20 16 -64 39 -98 51 -57 21 -75 22 -261 19 -199 -3 -200 -3 -258 -33 -227
-116 -196 -467 47 -540 75 -22 389 -21 466 1 62 18 141 84 162 134 9 23 22 32
54 40 114 29 167 45 234 71 327 130 606 357 795 649 50 78 147 259 147 275 0
4 6 21 14 38 8 18 21 52 29 77 13 39 19 46 48 51 61 10 128 47 179 99 27 28
50 54 50 58 0 4 4 13 8 20 7 9 21 8 65 -7 77 -27 107 -15 107 40 0 33 -22 52
-87 74 l-53 17 0 248 0 248 58 22 c76 31 82 37 82 76 0 53 -30 62 -115 33 -66
-22 -68 -22 -78 -3 -29 52 -102 115 -157 135 -49 18 -58 25 -69 57 -15 43 -17
50 -70 166 -45 98 -47 112 -26 172 30 89 63 217 91 364 22 113 25 428 5 520
-18 81 -36 125 -61 150 -24 24 -31 24 -95 1z"/>
<path d="M1955 3075 c-75 -41 -109 -102 -103 -186 8 -105 80 -165 188 -157
101 7 165 78 164 183 0 98 -65 166 -162 172 -39 3 -66 -1 -87 -12z"/>
<path d="M2895 3079 c-83 -48 -125 -137 -103 -216 23 -83 88 -133 176 -133
128 0 214 144 157 263 -29 60 -76 91 -149 94 -34 2 -70 -2 -81 -8z"/>
<path d="M1232 2588 c-7 -7 -12 -27 -12 -45 0 -38 10 -45 105 -63 33 -6 80
-15 105 -20 25 -4 74 -14 110 -20 36 -6 84 -16 107 -21 70 -15 101 -12 118 15
12 18 13 30 6 50 -6 14 -14 26 -19 26 -4 0 -53 9 -107 20 -390 79 -392 79
-413 58z"/>
<path d="M3575 2574 c-66 -13 -142 -28 -170 -34 -170 -33 -177 -36 -177 -74 0
-53 39 -68 122 -47 19 5 69 14 110 21 41 7 89 16 105 20 17 4 64 14 105 20 41
7 83 20 93 28 23 20 22 69 -2 82 -27 14 -48 12 -186 -16z"/>
<path d="M1965 2368 c-24 -19 -27 -26 -23 -68 7 -65 44 -135 104 -189 69 -63
134 -85 229 -78 79 6 108 17 179 72 l47 36 39 -35 c68 -61 95 -71 195 -71 74
0 98 5 138 24 144 71 234 255 154 315 -26 19 -30 19 -55 6 -18 -11 -32 -32
-44 -65 -20 -61 -70 -123 -114 -141 -43 -18 -118 -18 -152 0 -43 22 -81 69
-101 122 -11 29 -29 55 -44 63 -22 13 -28 13 -51 -3 -28 -18 -30 -22 -40 -68
-8 -34 -59 -94 -97 -114 -48 -24 -119 -18 -171 15 -51 32 -70 62 -88 133 -8
32 -19 49 -36 57 -33 15 -37 14 -69 -11z"/>
<path d="M1450 2234 c-173 -29 -208 -37 -223 -55 -18 -22 -15 -57 7 -71 16
-11 76 -10 133 2 42 9 209 36 341 55 48 8 77 39 65 71 -16 44 -48 43 -323 -2z"/>
<path d="M3243 2263 c-7 -2 -13 -19 -13 -38 0 -18 6 -37 13 -43 11 -9 97 -26
282 -53 39 -6 89 -15 112 -20 58 -13 117 -11 131 3 16 16 15 63 0 75 -18 14
-40 19 -263 53 -195 30 -238 33 -262 23z"/>
</g>
</svg>
